<svg xmlns="http://www.w3.org/2000/svg" xmlns:xlink="http://www.w3.org/1999/xlink" width="1330px" height="830px" viewBox="0 0 1330 830" preserveAspectRatio="xMidYMid meet" ><rect id="svgEditorBackground" x="0" y="0" width="1330" height="830" style="fill: none; stroke: none;"/><defs id="svgEditorDefs"><polygon id="svgEditorShapeDefs" style="fill:silver;stroke:none;vector-effect:non-scaling-stroke;stroke-width:1px;"/></defs><circle id="e1_circle" cx="241" cy="225.75" style="stroke:gray; stroke-width:6.51px;fill:silver;fill-opacity:0.01;" r="15.2109"/><path d="M120.08,56h-48.08v-48.08c0,-4.374,-3.5460000000000065,-7.92,-7.920000000000002,-7.92h-0.1599999999999966c-4.374000000000002,0,-7.920000000000002,3.5460000000000003,-7.920000000000002,7.92v48.08h-48.08c-4.374,0,-7.92,3.5459999999999994,-7.92,7.920000000000002v0.1599999999999966c0,4.373999999999995,3.5460000000000003,7.920000000000002,7.92,7.920000000000002h48.08v48.08c0,4.373999999999995,3.5459999999999994,7.920000000000002,7.920000000000002,7.920000000000002h0.1599999999999966c4.373999999999995,0,7.920000000000002,-3.5460000000000065,7.920000000000002,-7.920000000000002v-48.08h48.08c4.373999999999995,0,7.920000000000002,-3.5460000000000065,7.920000000000002,-7.920000000000002v-0.1599999999999966c0,-4.374000000000002,-3.5460000000000065,-7.920000000000002,-7.920000000000002,-7.920000000000002Z" style="fill:white; stroke:none; vector-effect:non-scaling-stroke;stroke-width:1px;" id="e5_shape" transform="matrix(0.09375 0 0 0.09375 235 220)"/></svg>